<?xml version="1.0" encoding="utf-8"?>
<!-- Generator: Adobe Illustrator 27.5.0, SVG Export Plug-In . SVG Version: 6.00 Build 0)  -->
<svg version="1.1" xmlns="http://www.w3.org/2000/svg" xmlns:xlink="http://www.w3.org/1999/xlink" x="0px" y="0px"
	 viewBox="0 0 750 500" style="enable-background:new 0 0 750 500;" xml:space="preserve">
<g id="BACKGROUND">
	<rect style="fill:#1F1E69;" width="750" height="500"/>
</g>
<g id="OBJECTS">
	<g>
		<rect x="574.927" y="133.23" style="opacity:0.3;fill:#7945DC;" width="45.806" height="89.421"/>
		<rect x="175.808" y="101.612" style="opacity:0.2;fill:#7945DC;" width="72.482" height="122.994"/>
		<path style="opacity:0.2;fill:#7945DC;" d="M491.227,217.137H388.095V88.315h103.133V217.137z M394.435,211.301h90.452V94.15
			h-90.452V211.301z"/>
		<rect x="151.248" y="110.15" style="opacity:0.2;fill:#7945DC;" width="72.646" height="49.955"/>
		<rect x="267.115" y="121.536" style="opacity:0.3;fill:#7945DC;" width="143.575" height="48.357"/>
		<rect x="436.505" y="80.57" style="opacity:0.2;fill:#7945DC;" width="63.383" height="21.348"/>
		
			<ellipse transform="matrix(0.2274 -0.9738 0.9738 0.2274 273.1219 780.8848)" style="opacity:0.2;fill:#7945DC;" cx="628.684" cy="218.318" rx="24.118" ry="24.118"/>
		<g>
			<circle style="opacity:0.3;fill:#7945DC;" cx="509.907" cy="105.764" r="6.785"/>
			<circle style="opacity:0.3;fill:#7945DC;" cx="509.907" cy="129.228" r="6.785"/>
			<circle style="opacity:0.3;fill:#7945DC;" cx="509.907" cy="152.692" r="6.785"/>
		</g>
		
			<ellipse transform="matrix(0.7071 -0.7071 0.7071 0.7071 -32.7918 149.9051)" style="opacity:0.6;fill:none;stroke:#7945DC;stroke-miterlimit:10;" cx="164.555" cy="114.536" rx="62.932" ry="62.932"/>
		
			<ellipse transform="matrix(0.2249 -0.9744 0.9744 0.2249 274.5929 781.8118)" style="fill:none;stroke:#70DBC8;stroke-miterlimit:10;" cx="628.684" cy="218.318" rx="50.765" ry="50.765"/>
		
			<ellipse transform="matrix(0.7071 -0.7071 0.7071 0.7071 -39.1279 284.0405)" style="opacity:0.3;fill:none;stroke:#7945DC;stroke-miterlimit:10;" cx="323.303" cy="189.252" rx="38.178" ry="38.178"/>
		<g style="opacity:0.6;">
			<rect x="528.586" y="100.745" style="fill:#7945DC;" width="2.038" height="2.038"/>
			<rect x="536.681" y="100.745" style="fill:#7945DC;" width="2.038" height="2.038"/>
			<rect x="544.776" y="100.745" style="fill:#7945DC;" width="2.038" height="2.038"/>
			<rect x="552.87" y="100.745" style="fill:#7945DC;" width="2.038" height="2.038"/>
			<rect x="560.965" y="100.745" style="fill:#7945DC;" width="2.038" height="2.038"/>
			<rect x="569.06" y="100.745" style="fill:#7945DC;" width="2.038" height="2.038"/>
			<rect x="577.155" y="100.745" style="fill:#7945DC;" width="2.038" height="2.038"/>
			<rect x="585.25" y="100.745" style="fill:#7945DC;" width="2.038" height="2.038"/>
			
				<rect x="528.586" y="108.84" transform="matrix(-1.836970e-16 1 -1 -1.836970e-16 639.4646 -419.7461)" style="fill:#70DBC8;" width="2.038" height="2.038"/>
			
				<rect x="528.586" y="116.935" transform="matrix(-1.836970e-16 1 -1 -1.836970e-16 647.5594 -411.6513)" style="fill:#7945DC;" width="2.038" height="2.038"/>
			
				<rect x="528.586" y="125.03" transform="matrix(-1.836970e-16 1 -1 -1.836970e-16 655.6541 -403.5566)" style="fill:#7945DC;" width="2.038" height="2.038"/>
			
				<rect x="528.586" y="133.124" transform="matrix(-1.836970e-16 1 -1 -1.836970e-16 663.7489 -395.4618)" style="fill:#7945DC;" width="2.038" height="2.038"/>
			
				<rect x="528.586" y="141.219" transform="matrix(-1.836970e-16 1 -1 -1.836970e-16 671.8436 -387.367)" style="fill:#7945DC;" width="2.038" height="2.038"/>
			
				<rect x="528.586" y="149.314" transform="matrix(-1.836970e-16 1 -1 -1.836970e-16 679.9384 -379.2723)" style="fill:#70DBC8;" width="2.038" height="2.038"/>
			
				<rect x="528.586" y="157.409" transform="matrix(-1.836970e-16 1 -1 -1.836970e-16 688.0331 -371.1775)" style="fill:#7945DC;" width="2.038" height="2.038"/>
			
				<rect x="536.681" y="108.84" transform="matrix(-1.836970e-16 1 -1 -1.836970e-16 647.5593 -427.8408)" style="fill:#7945DC;" width="2.038" height="2.038"/>
			
				<rect x="536.681" y="116.935" transform="matrix(-1.836970e-16 1 -1 -1.836970e-16 655.6541 -419.746)" style="fill:#7945DC;" width="2.038" height="2.038"/>
			
				<rect x="536.681" y="125.03" transform="matrix(-1.836970e-16 1 -1 -1.836970e-16 663.7488 -411.6513)" style="fill:#7945DC;" width="2.038" height="2.038"/>
			
				<rect x="536.681" y="133.125" transform="matrix(-1.836970e-16 1 -1 -1.836970e-16 671.8436 -403.5565)" style="fill:#7945DC;" width="2.038" height="2.038"/>
			
				<rect x="536.681" y="141.219" transform="matrix(-1.836970e-16 1 -1 -1.836970e-16 679.9384 -395.4617)" style="fill:#7945DC;" width="2.038" height="2.038"/>
			
				<rect x="536.681" y="149.314" transform="matrix(-1.836970e-16 1 -1 -1.836970e-16 688.0331 -387.367)" style="fill:#7945DC;" width="2.038" height="2.038"/>
			
				<rect x="536.681" y="157.409" transform="matrix(-1.836970e-16 1 -1 -1.836970e-16 696.1279 -379.2722)" style="fill:#7945DC;" width="2.038" height="2.038"/>
			
				<rect x="544.776" y="108.84" transform="matrix(-1.836970e-16 1 -1 -1.836970e-16 655.6541 -435.9356)" style="fill:#70DBC8;" width="2.038" height="2.038"/>
			
				<rect x="544.776" y="116.935" transform="matrix(-1.836970e-16 1 -1 -1.836970e-16 663.7489 -427.8408)" style="fill:#7945DC;" width="2.038" height="2.038"/>
			
				<rect x="544.776" y="125.03" transform="matrix(-1.836970e-16 1 -1 -1.836970e-16 671.8436 -419.7461)" style="fill:#7945DC;" width="2.038" height="2.038"/>
			
				<rect x="544.776" y="133.124" transform="matrix(-1.836970e-16 1 -1 -1.836970e-16 679.9384 -411.6513)" style="fill:#7945DC;" width="2.038" height="2.038"/>
			
				<rect x="544.776" y="141.219" transform="matrix(-1.836970e-16 1 -1 -1.836970e-16 688.0331 -403.5565)" style="fill:#7945DC;" width="2.038" height="2.038"/>
			
				<rect x="544.776" y="149.314" transform="matrix(-1.836970e-16 1 -1 -1.836970e-16 696.1279 -395.4618)" style="fill:#7945DC;" width="2.038" height="2.038"/>
			
				<rect x="544.776" y="157.409" transform="matrix(-1.836970e-16 1 -1 -1.836970e-16 704.2227 -387.367)" style="fill:#7945DC;" width="2.038" height="2.038"/>
			
				<rect x="552.871" y="108.84" transform="matrix(-1.836970e-16 1 -1 -1.836970e-16 663.7488 -444.0303)" style="fill:#7945DC;" width="2.038" height="2.038"/>
			
				<rect x="552.871" y="116.935" transform="matrix(-1.836970e-16 1 -1 -1.836970e-16 671.8436 -435.9355)" style="fill:#7945DC;" width="2.038" height="2.038"/>
			
				<rect x="552.871" y="125.03" transform="matrix(-1.836970e-16 1 -1 -1.836970e-16 679.9384 -427.8408)" style="fill:#7945DC;" width="2.038" height="2.038"/>
			
				<rect x="552.871" y="133.124" transform="matrix(-1.836970e-16 1 -1 -1.836970e-16 688.0331 -419.746)" style="fill:#7945DC;" width="2.038" height="2.038"/>
			
				<rect x="552.87" y="141.219" transform="matrix(-1.836970e-16 1 -1 -1.836970e-16 696.1279 -411.6513)" style="fill:#70DBC8;" width="2.038" height="2.038"/>
			
				<rect x="552.871" y="149.314" transform="matrix(-1.836970e-16 1 -1 -1.836970e-16 704.2227 -403.5565)" style="fill:#7945DC;" width="2.038" height="2.038"/>
			
				<rect x="552.87" y="157.409" transform="matrix(-1.836970e-16 1 -1 -1.836970e-16 712.3174 -395.4618)" style="fill:#7945DC;" width="2.038" height="2.038"/>
			
				<rect x="560.965" y="108.84" transform="matrix(-1.836970e-16 1 -1 -1.836970e-16 671.8436 -452.1251)" style="fill:#7945DC;" width="2.038" height="2.038"/>
			
				<rect x="560.965" y="116.935" transform="matrix(-1.836970e-16 1 -1 -1.836970e-16 679.9384 -444.0303)" style="fill:#7945DC;" width="2.038" height="2.038"/>
			
				<rect x="560.965" y="125.03" transform="matrix(-1.836970e-16 1 -1 -1.836970e-16 688.0331 -435.9356)" style="fill:#7945DC;" width="2.038" height="2.038"/>
			
				<rect x="560.965" y="133.124" transform="matrix(-1.836970e-16 1 -1 -1.836970e-16 696.1279 -427.8408)" style="fill:#7945DC;" width="2.038" height="2.038"/>
			
				<rect x="560.965" y="141.219" transform="matrix(-1.836970e-16 1 -1 -1.836970e-16 704.2227 -419.746)" style="fill:#7945DC;" width="2.038" height="2.038"/>
			
				<rect x="560.965" y="149.314" transform="matrix(-1.836970e-16 1 -1 -1.836970e-16 712.3174 -411.6513)" style="fill:#7945DC;" width="2.038" height="2.038"/>
			
				<rect x="560.965" y="157.409" transform="matrix(-1.836970e-16 1 -1 -1.836970e-16 720.4121 -403.5565)" style="fill:#7945DC;" width="2.038" height="2.038"/>
			
				<rect x="569.06" y="108.84" transform="matrix(-1.836970e-16 1 -1 -1.836970e-16 679.9384 -460.2198)" style="fill:#7945DC;" width="2.038" height="2.038"/>
			
				<rect x="569.06" y="116.935" transform="matrix(-1.836970e-16 1 -1 -1.836970e-16 688.0331 -452.125)" style="fill:#7945DC;" width="2.038" height="2.038"/>
			
				<rect x="569.06" y="125.03" transform="matrix(-1.836970e-16 1 -1 -1.836970e-16 696.1279 -444.0303)" style="fill:#7945DC;" width="2.038" height="2.038"/>
			
				<rect x="569.06" y="133.124" transform="matrix(-1.836970e-16 1 -1 -1.836970e-16 704.2227 -435.9355)" style="fill:#7945DC;" width="2.038" height="2.038"/>
			
				<rect x="569.06" y="141.219" transform="matrix(-1.836970e-16 1 -1 -1.836970e-16 712.3174 -427.8408)" style="fill:#7945DC;" width="2.038" height="2.038"/>
			
				<rect x="569.06" y="149.314" transform="matrix(-1.836970e-16 1 -1 -1.836970e-16 720.4122 -419.746)" style="fill:#7945DC;" width="2.038" height="2.038"/>
			
				<rect x="569.06" y="157.409" transform="matrix(-1.836970e-16 1 -1 -1.836970e-16 728.5069 -411.6513)" style="fill:#70DBC8;" width="2.038" height="2.038"/>
			
				<rect x="577.155" y="108.84" transform="matrix(-1.836970e-16 1 -1 -1.836970e-16 688.0331 -468.3146)" style="fill:#7945DC;" width="2.038" height="2.038"/>
			
				<rect x="577.155" y="116.935" transform="matrix(-1.836970e-16 1 -1 -1.836970e-16 696.1279 -460.2198)" style="fill:#7945DC;" width="2.038" height="2.038"/>
			
				<rect x="577.155" y="125.03" transform="matrix(-1.836970e-16 1 -1 -1.836970e-16 704.2226 -452.1251)" style="fill:#7945DC;" width="2.038" height="2.038"/>
			
				<rect x="577.155" y="133.124" transform="matrix(-1.836970e-16 1 -1 -1.836970e-16 712.3174 -444.0303)" style="fill:#7945DC;" width="2.038" height="2.038"/>
			
				<rect x="577.155" y="141.219" transform="matrix(-1.836970e-16 1 -1 -1.836970e-16 720.4121 -435.9355)" style="fill:#7945DC;" width="2.038" height="2.038"/>
			
				<rect x="577.155" y="149.314" transform="matrix(-1.836970e-16 1 -1 -1.836970e-16 728.5069 -427.8408)" style="fill:#70DBC8;" width="2.038" height="2.038"/>
			
				<rect x="577.155" y="157.409" transform="matrix(-1.836970e-16 1 -1 -1.836970e-16 736.6016 -419.746)" style="fill:#70DBC8;" width="2.038" height="2.038"/>
			
				<rect x="585.25" y="108.84" transform="matrix(-1.836970e-16 1 -1 -1.836970e-16 696.1279 -476.4094)" style="fill:#7945DC;" width="2.038" height="2.038"/>
			
				<rect x="585.25" y="116.935" transform="matrix(-1.836970e-16 1 -1 -1.836970e-16 704.2227 -468.3146)" style="fill:#7945DC;" width="2.038" height="2.038"/>
			<rect x="528.586" y="84.556" style="fill:#7945DC;" width="2.038" height="2.038"/>
			<rect x="536.681" y="84.556" style="fill:#7945DC;" width="2.038" height="2.038"/>
			<rect x="544.776" y="84.556" style="fill:#70DBC8;" width="2.038" height="2.038"/>
			<rect x="552.87" y="84.556" style="fill:#7945DC;" width="2.038" height="2.038"/>
			<rect x="560.965" y="84.556" style="fill:#7945DC;" width="2.038" height="2.038"/>
			<rect x="569.06" y="84.556" style="fill:#7945DC;" width="2.038" height="2.038"/>
			<rect x="577.155" y="84.556" style="fill:#7945DC;" width="2.038" height="2.038"/>
			<rect x="585.25" y="84.556" style="fill:#7945DC;" width="2.038" height="2.038"/>
			
				<rect x="528.586" y="92.651" transform="matrix(-1.836970e-16 1 -1 -1.836970e-16 623.2751 -435.9356)" style="fill:#7945DC;" width="2.038" height="2.038"/>
			
				<rect x="536.681" y="92.651" transform="matrix(-1.836970e-16 1 -1 -1.836970e-16 631.3698 -444.0303)" style="fill:#7945DC;" width="2.038" height="2.038"/>
			
				<rect x="544.776" y="92.651" transform="matrix(-1.836970e-16 1 -1 -1.836970e-16 639.4646 -452.1251)" style="fill:#7945DC;" width="2.038" height="2.038"/>
			
				<rect x="552.871" y="92.651" transform="matrix(-1.836970e-16 1 -1 -1.836970e-16 647.5593 -460.2198)" style="fill:#70DBC8;" width="2.038" height="2.038"/>
			
				<rect x="560.965" y="92.651" transform="matrix(-1.836970e-16 1 -1 -1.836970e-16 655.6541 -468.3146)" style="fill:#70DBC8;" width="2.038" height="2.038"/>
			
				<rect x="569.06" y="92.651" transform="matrix(-1.836970e-16 1 -1 -1.836970e-16 663.7488 -476.4093)" style="fill:#7945DC;" width="2.038" height="2.038"/>
			
				<rect x="577.155" y="92.651" transform="matrix(-1.836970e-16 1 -1 -1.836970e-16 671.8436 -484.5041)" style="fill:#7945DC;" width="2.038" height="2.038"/>
			
				<rect x="585.25" y="92.651" transform="matrix(-1.836970e-16 1 -1 -1.836970e-16 679.9384 -492.5989)" style="fill:#7945DC;" width="2.038" height="2.038"/>
			
				<rect x="585.25" y="125.03" transform="matrix(-1.836970e-16 1 -1 -1.836970e-16 712.3174 -460.2199)" style="fill:#7945DC;" width="2.038" height="2.038"/>
			
				<rect x="585.25" y="133.124" transform="matrix(-1.836970e-16 1 -1 -1.836970e-16 720.4122 -452.1251)" style="fill:#70DBC8;" width="2.038" height="2.038"/>
			
				<rect x="585.25" y="141.219" transform="matrix(-1.836970e-16 1 -1 -1.836970e-16 728.507 -444.0303)" style="fill:#7945DC;" width="2.038" height="2.038"/>
			
				<rect x="585.25" y="149.314" transform="matrix(-1.836970e-16 1 -1 -1.836970e-16 736.6017 -435.9356)" style="fill:#7945DC;" width="2.038" height="2.038"/>
			
				<rect x="585.25" y="157.409" transform="matrix(-1.836970e-16 1 -1 -1.836970e-16 744.6964 -427.8408)" style="fill:#7945DC;" width="2.038" height="2.038"/>
		</g>
		<g>
			<path style="fill:#70DBC8;" d="M141.515,128.217l-4.238,2.652c0.385,0.615,0.799,1.227,1.229,1.817l4.039-2.947
				C142.184,129.245,141.837,128.733,141.515,128.217z"/>
			<path style="fill:#70DBC8;" d="M139.079,106.139l-4.715-1.662c-0.241,0.684-0.462,1.39-0.655,2.099l4.824,1.316
				C138.694,107.299,138.879,106.71,139.079,106.139z"/>
			<path style="fill:#70DBC8;" d="M140.99,101.965l-4.342-2.48c-0.358,0.629-0.702,1.283-1.02,1.946l4.508,2.164
				C140.402,103.039,140.69,102.491,140.99,101.965z"/>
			<path style="fill:#70DBC8;" d="M146.868,94.959l-3.197-3.844c-0.562,0.467-1.112,0.96-1.638,1.465l3.467,3.604
				C145.939,95.761,146.4,95.349,146.868,94.959z"/>
			<path style="fill:#70DBC8;" d="M138.134,119.73l-4.9,0.988c0.145,0.72,0.316,1.438,0.51,2.136l4.818-1.336
				C138.4,120.934,138.256,120.333,138.134,119.73z"/>
			<path style="fill:#70DBC8;" d="M139.442,124.13l-4.646,1.848c0.269,0.676,0.567,1.351,0.886,2.01l4.5-2.18
				C139.914,125.257,139.665,124.692,139.442,124.13z"/>
			<path style="fill:#70DBC8;" d="M137.636,115.165l-4.998,0.101c0.015,0.733,0.055,1.471,0.121,2.191l4.978-0.453
				C137.683,116.4,137.649,115.782,137.636,115.165z"/>
			<path style="fill:#70DBC8;" d="M137.952,110.587l-4.938-0.789c-0.114,0.714-0.204,1.447-0.268,2.181l4.98,0.432
				C137.781,111.797,137.857,111.183,137.952,110.587z"/>
			<path style="fill:#70DBC8;" d="M143.616,98.197l-3.83-3.213c-0.474,0.563-0.929,1.147-1.353,1.733l4.053,2.93
				C142.84,99.157,143.221,98.67,143.616,98.197z"/>
			<path style="fill:#70DBC8;" d="M150.643,92.349l-2.459-4.354c-0.635,0.358-1.265,0.746-1.874,1.151l2.771,4.162
				C149.59,92.97,150.115,92.647,150.643,92.349z"/>
			<path style="fill:#70DBC8;" d="M187.791,107.296l4.791-1.432c-0.21-0.702-0.447-1.403-0.706-2.084l-4.674,1.779
				C187.418,106.125,187.616,106.71,187.791,107.296z"/>
			<path style="fill:#70DBC8;" d="M186.085,103.039l4.455-2.271c-0.33-0.646-0.689-1.292-1.066-1.918l-4.281,2.584
				C185.509,101.958,185.81,102.498,186.085,103.039z"/>
			<path style="fill:#70DBC8;" d="M188.706,111.795l4.969-0.555c-0.081-0.724-0.189-1.455-0.32-2.172l-4.918,0.906
				C188.548,110.575,188.638,111.188,188.706,111.795z"/>
			<path style="fill:#70DBC8;" d="M183.643,99.153l3.979-3.027c-0.44-0.58-0.909-1.151-1.393-1.699l-3.75,3.307
				C182.882,98.191,183.274,98.669,183.643,99.153z"/>
			<path style="fill:#70DBC8;" d="M154.821,90.457l-1.644-4.723c-0.687,0.239-1.375,0.508-2.047,0.798l1.982,4.59
				C153.673,90.88,154.248,90.656,154.821,90.457z"/>
			<path style="fill:#70DBC8;" d="M180.547,95.763l3.377-3.688c-0.541-0.495-1.103-0.975-1.672-1.425l-3.105,3.918
				C179.623,94.947,180.094,95.348,180.547,95.763z"/>
			<path style="fill:#70DBC8;" d="M179.566,88.747c-0.617-0.39-1.256-0.762-1.898-1.105l-2.359,4.408
				c0.538,0.288,1.074,0.6,1.592,0.926L179.566,88.747z"/>
			<path style="fill:#70DBC8;" d="M169.419,139.521l1.199,4.854c0.703-0.174,1.414-0.377,2.113-0.604l-1.547-4.756
				C170.6,139.206,170.006,139.376,169.419,139.521z"/>
			<path style="fill:#70DBC8;" d="M181.283,132.843l3.525,3.547c0.523-0.521,1.029-1.06,1.502-1.602l-3.768-3.287
				C182.149,131.954,181.725,132.406,181.283,132.843z"/>
			<path style="fill:#70DBC8;" d="M172.609,85.497l-1.525,4.762c0.575,0.185,1.157,0.395,1.73,0.624l1.865-4.639
				C173.993,85.968,173.297,85.717,172.609,85.497z"/>
			<path style="fill:#70DBC8;" d="M173.751,138.023l2.057,4.557c0.667-0.301,1.328-0.628,1.966-0.972l-2.375-4.4
				C174.865,137.496,174.311,137.77,173.751,138.023z"/>
			<path style="fill:#70DBC8;" d="M184.243,129.332l4.098,2.865c0.422-0.602,0.823-1.224,1.194-1.844l-4.291-2.566
				C184.934,128.306,184.597,128.826,184.243,129.332z"/>
			<path style="fill:#70DBC8;" d="M177.752,135.769l2.83,4.121c0.596-0.408,1.188-0.849,1.765-1.309l-3.121-3.906
				C178.744,135.06,178.248,135.428,177.752,135.769z"/>
			<path style="fill:#70DBC8;" d="M188.862,114.536v0.118c0,0.607-0.021,1.227-0.065,1.84l4.988,0.352
				c0.051-0.73,0.077-1.468,0.077-2.191v-0.118H188.862z"/>
			<path style="fill:#70DBC8;" d="M188.065,121.026l4.846,1.232c0.181-0.71,0.338-1.431,0.466-2.143l-4.92-0.889
				C188.348,119.824,188.217,120.429,188.065,121.026z"/>
			<path style="fill:#70DBC8;" d="M186.53,125.348l4.543,2.09c0.306-0.666,0.591-1.35,0.847-2.031l-4.682-1.756
				C187.025,124.22,186.786,124.792,186.53,125.348z"/>
			<path style="fill:#70DBC8;" d="M149.255,141.891c0.648,0.334,1.319,0.648,1.992,0.936l1.961-4.6
				c-0.563-0.24-1.123-0.503-1.664-0.781L149.255,141.891z"/>
			<path style="fill:#70DBC8;" d="M144.287,131.876l-3.699,3.365c0.493,0.541,1.009,1.069,1.533,1.569l3.451-3.617
				C145.133,132.773,144.7,132.331,144.287,131.876z"/>
			<path style="fill:#70DBC8;" d="M156.343,84.821l1.125,4.871c0.598-0.138,1.203-0.254,1.8-0.347l-0.764-4.941
				C157.786,84.515,157.059,84.655,156.343,84.821z"/>
			<path style="fill:#70DBC8;" d="M154.346,143.954c0.693,0.21,1.408,0.399,2.123,0.562l1.105-4.877
				c-0.6-0.136-1.197-0.294-1.777-0.47L154.346,143.954z"/>
			<path style="fill:#70DBC8;" d="M144.626,138.957c0.585,0.447,1.187,0.875,1.785,1.271l2.754-4.174
				c-0.504-0.332-1.01-0.691-1.504-1.069L144.626,138.957z"/>
			<path style="fill:#70DBC8;" d="M161.776,84.073l0.24,4.994c0.39-0.019,0.78-0.028,1.179-0.028
				c0.22,0.002,0.442,0.003,0.664,0.007l0.109-4.998c-0.239-0.006-0.48-0.009-0.715-0.009
				C162.732,84.041,162.266,84.049,161.776,84.073z"/>
			<path style="fill:#70DBC8;" d="M159.718,145.067c0.718,0.083,1.454,0.141,2.187,0.173l0.217-4.996
				c-0.616-0.026-1.232-0.075-1.834-0.144L159.718,145.067z"/>
			<path style="fill:#70DBC8;" d="M164.885,140.216l0.311,4.99c0.729-0.045,1.465-0.118,2.188-0.216l-0.672-4.955
				C166.108,140.118,165.493,140.178,164.885,140.216z"/>
			<path style="fill:#70DBC8;" d="M167.255,84.299l-0.65,4.957c0.608,0.08,1.218,0.183,1.811,0.305l1.008-4.899
				C168.711,84.517,167.982,84.394,167.255,84.299z"/>
		</g>
		<g>
			<g>
				<polygon style="fill:#9EF3D2;" points="423.713,141.383 422.713,141.383 422.713,132.872 431.224,132.872 431.224,133.872 
					423.713,133.872 				"/>
				<polygon style="fill:#9EF3D2;" points="459.736,141.383 458.736,141.383 458.736,133.872 451.225,133.872 451.225,132.872 
					459.736,132.872 				"/>
				<polygon style="fill:#9EF3D2;" points="459.736,169.893 451.225,169.893 451.225,168.893 458.736,168.893 458.736,161.383 
					459.736,161.383 				"/>
				<polygon style="fill:#9EF3D2;" points="431.224,169.893 422.713,169.893 422.713,161.383 423.713,161.383 423.713,168.893 
					431.224,168.893 				"/>
			</g>
			<path style="fill:#7945DC;" d="M446.763,151.383c0,3.059-2.48,5.538-5.539,5.538c-3.059,0-5.538-2.48-5.538-5.538
				c0-3.059,2.48-5.539,5.538-5.539C444.283,145.844,446.763,148.324,446.763,151.383z"/>
			<path style="fill:#9EF3D2;" d="M441.224,152.848c-0.808,0-1.466-0.658-1.466-1.466c0-0.808,0.658-1.466,1.466-1.466
				c0.809,0,1.466,0.658,1.466,1.466C442.69,152.191,442.033,152.848,441.224,152.848z"/>
		</g>
		<g>
			<path style="fill:#9EF3D2;" d="M301.596,137.494h-41.83c-0.54,0-0.977-0.438-0.977-0.977l0,0c0-0.54,0.438-0.977,0.977-0.977
				h41.83c0.54,0,0.977,0.438,0.977,0.977l0,0C302.573,137.056,302.135,137.494,301.596,137.494z"/>
			<path style="fill:#9EF3D2;" d="M281.594,142.764h-21.829c-0.54,0-0.977-0.438-0.977-0.977l0,0c0-0.54,0.438-0.977,0.977-0.977
				h21.829c0.54,0,0.977,0.438,0.977,0.977l0,0C282.572,142.326,282.134,142.764,281.594,142.764z"/>
		</g>
		<g>
			<path style="fill:#7945DC;" d="M636.276,110.995h-41.83c-0.54,0-0.977-0.438-0.977-0.977l0,0c0-0.54,0.438-0.977,0.977-0.977
				h41.83c0.54,0,0.977,0.438,0.977,0.977l0,0C637.253,110.557,636.816,110.995,636.276,110.995z"/>
			<path style="fill:#7945DC;" d="M616.274,116.264h-21.829c-0.54,0-0.977-0.438-0.977-0.977l0,0c0-0.54,0.438-0.977,0.977-0.977
				h21.829c0.54,0,0.977,0.438,0.977,0.977l0,0C617.252,115.826,616.814,116.264,616.274,116.264z"/>
		</g>
		<g>
			<path style="fill:#7945DC;" d="M160.475,225.096h-21.829c-0.54,0-0.977-0.438-0.977-0.977l0,0c0-0.54,0.438-0.977,0.977-0.977
				h21.829c0.54,0,0.977,0.438,0.977,0.977l0,0C161.452,224.659,161.015,225.096,160.475,225.096z"/>
			<path style="fill:#7945DC;" d="M160.475,230.366h-21.829c-0.54,0-0.977-0.438-0.977-0.977l0,0c0-0.54,0.438-0.977,0.977-0.977
				h21.829c0.54,0,0.977,0.438,0.977,0.977l0,0C161.452,229.928,161.015,230.366,160.475,230.366z"/>
		</g>
		<g>
			<path style="fill:#9EF3D2;" d="M636.276,148.241h-41.83c-0.54,0-0.977-0.438-0.977-0.977l0,0c0-0.54,0.438-0.977,0.977-0.977
				h41.83c0.54,0,0.977,0.438,0.977,0.977l0,0C637.253,147.803,636.816,148.241,636.276,148.241z"/>
			<path style="fill:#9EF3D2;" d="M616.274,153.51h-21.829c-0.54,0-0.977-0.438-0.977-0.977l0,0c0-0.54,0.438-0.977,0.977-0.977
				h21.829c0.54,0,0.977,0.438,0.977,0.977l0,0C617.252,153.073,616.814,153.51,616.274,153.51z"/>
			<path style="fill:#9EF3D2;" d="M616.274,158.78h-21.829c-0.54,0-0.977-0.438-0.977-0.977l0,0c0-0.54,0.438-0.977,0.977-0.977
				h21.829c0.54,0,0.977,0.438,0.977,0.977l0,0C617.252,158.342,616.814,158.78,616.274,158.78z"/>
		</g>
		<g>
			<path style="fill:#9EF3D2;" d="M180.476,201.491h-41.83c-0.54,0-0.977-0.438-0.977-0.977l0,0c0-0.54,0.438-0.977,0.977-0.977
				h41.83c0.54,0,0.977,0.438,0.977,0.977l0,0C181.453,201.053,181.016,201.491,180.476,201.491z"/>
			<path style="fill:#9EF3D2;" d="M180.476,196.729h-41.83c-0.54,0-0.977-0.438-0.977-0.977l0,0c0-0.54,0.438-0.977,0.977-0.977
				h41.83c0.54,0,0.977,0.438,0.977,0.977l0,0C181.453,196.291,181.016,196.729,180.476,196.729z"/>
			<path style="fill:#9EF3D2;" d="M180.476,191.967h-41.83c-0.54,0-0.977-0.438-0.977-0.977l0,0c0-0.54,0.438-0.977,0.977-0.977
				h41.83c0.54,0,0.977,0.438,0.977,0.977l0,0C181.453,191.529,181.016,191.967,180.476,191.967z"/>
			<path style="fill:#9EF3D2;" d="M160.475,206.253h-21.829c-0.54,0-0.977-0.438-0.977-0.977l0,0c0-0.54,0.438-0.977,0.977-0.977
				h21.829c0.54,0,0.977,0.438,0.977,0.977l0,0C161.452,205.815,161.015,206.253,160.475,206.253z"/>
		</g>
		
			<ellipse transform="matrix(0.1606 -0.987 0.987 0.1606 23.878 257.3564)" style="fill:#A28FFF;" cx="163.25" cy="114.639" rx="8.764" ry="8.764"/>
		<g>
			<g>
				<path style="fill:#A28FFF;" d="M260.675,77.243L260.675,77.243c-1.05,0-1.901,0.851-1.901,1.901v8.932
					c0,1.05,0.851,1.901,1.901,1.901h0c1.05,0,1.901-0.851,1.901-1.901v-8.932C262.576,78.094,261.725,77.243,260.675,77.243z"/>
				<path style="fill:#A28FFF;" d="M267.339,77.243L267.339,77.243c-1.05,0-1.901,0.851-1.901,1.901v8.932
					c0,1.05,0.851,1.901,1.901,1.901h0c1.05,0,1.901-0.851,1.901-1.901v-8.932C269.239,78.094,268.388,77.243,267.339,77.243z"/>
				<path style="fill:#A28FFF;" d="M274.002,77.243L274.002,77.243c-1.05,0-1.901,0.851-1.901,1.901v8.932
					c0,1.05,0.851,1.901,1.901,1.901h0c1.05,0,1.901-0.851,1.901-1.901v-8.932C275.903,78.094,275.052,77.243,274.002,77.243z"/>
				<path style="fill:#A28FFF;" d="M280.666,77.243L280.666,77.243c-1.05,0-1.901,0.851-1.901,1.901v8.932
					c0,1.05,0.851,1.901,1.901,1.901h0c1.05,0,1.901-0.851,1.901-1.901v-8.932C282.567,78.094,281.716,77.243,280.666,77.243z"/>
				<path style="fill:#A28FFF;" d="M287.33,77.243L287.33,77.243c-1.05,0-1.901,0.851-1.901,1.901v8.932
					c0,1.05,0.851,1.901,1.901,1.901h0c1.05,0,1.901-0.851,1.901-1.901v-8.932C289.231,78.094,288.38,77.243,287.33,77.243z"/>
				<path style="fill:#A28FFF;" d="M293.994,77.243L293.994,77.243c-1.05,0-1.901,0.851-1.901,1.901v8.932
					c0,1.05,0.851,1.901,1.901,1.901h0c1.05,0,1.901-0.851,1.901-1.901v-8.932C295.895,78.094,295.044,77.243,293.994,77.243z"/>
				<path style="fill:#A28FFF;" d="M300.658,77.243L300.658,77.243c-1.05,0-1.901,0.851-1.901,1.901v8.932
					c0,1.05,0.851,1.901,1.901,1.901h0c1.05,0,1.901-0.851,1.901-1.901v-8.932C302.558,78.094,301.707,77.243,300.658,77.243z"/>
				<path style="fill:#A28FFF;" d="M307.321,77.243L307.321,77.243c-1.05,0-1.901,0.851-1.901,1.901v8.932
					c0,1.05,0.851,1.901,1.901,1.901h0c1.05,0,1.901-0.851,1.901-1.901v-8.932C309.222,78.094,308.371,77.243,307.321,77.243z"/>
				<path style="fill:#7945DC;" d="M313.985,77.243L313.985,77.243c-1.05,0-1.901,0.851-1.901,1.901v8.932
					c0,1.05,0.851,1.901,1.901,1.901h0c1.05,0,1.901-0.851,1.901-1.901v-8.932C315.886,78.094,315.035,77.243,313.985,77.243z"/>
				<path style="fill:#7945DC;" d="M320.649,77.243L320.649,77.243c-1.05,0-1.901,0.851-1.901,1.901v8.932
					c0,1.05,0.851,1.901,1.901,1.901h0c1.05,0,1.901-0.851,1.901-1.901v-8.932C322.55,78.094,321.699,77.243,320.649,77.243z"/>
				<path style="fill:#7945DC;" d="M327.313,77.243L327.313,77.243c-1.05,0-1.901,0.851-1.901,1.901v8.932
					c0,1.05,0.851,1.901,1.901,1.901h0c1.05,0,1.901-0.851,1.901-1.901v-8.932C329.214,78.094,328.363,77.243,327.313,77.243z"/>
				<path style="fill:#7945DC;" d="M333.977,77.243L333.977,77.243c-1.05,0-1.901,0.851-1.901,1.901v8.932
					c0,1.05,0.851,1.901,1.901,1.901h0c1.05,0,1.901-0.851,1.901-1.901v-8.932C335.877,78.094,335.026,77.243,333.977,77.243z"/>
			</g>
			
				<rect x="252.446" y="72.343" style="opacity:0.3;fill:none;stroke:#7945DC;stroke-miterlimit:10;" width="89.759" height="22.696"/>
		</g>
		<g>
			<g>
				<path style="fill:#9071F4;" d="M544.629,191.722v-7.123c0-2.764,2.241-5.005,5.005-5.005h17.64c2.764,0,5.005,2.241,5.005,5.005
					v7.123c0,2.764-2.241,5.005-5.005,5.005h-17.64C546.869,196.726,544.629,194.486,544.629,191.722z"/>
				<path style="fill:#7945DC;" d="M540.668,191.722v-7.123c0-2.764,2.241-5.005,5.005-5.005h17.64c2.764,0,5.005,2.241,5.005,5.005
					v7.123c0,2.764-2.241,5.005-5.005,5.005h-17.64C542.909,196.726,540.668,194.486,540.668,191.722z"/>
			</g>
			<path style="fill:#582EBF;" d="M557.974,188.16c0,1.923-1.559,3.482-3.482,3.482s-3.482-1.559-3.482-3.482
				s1.559-3.482,3.482-3.482S557.974,186.237,557.974,188.16z"/>
			<path style="fill:#70DBC8;" d="M556.252,188.16c0,0.972-0.788,1.76-1.76,1.76c-0.972,0-1.76-0.788-1.76-1.76
				s0.788-1.76,1.76-1.76C555.464,186.4,556.252,187.188,556.252,188.16z"/>
		</g>
	</g>
	<g>
		<path style="fill:#1E0049;" d="M618.18,449.101h-24.35v-94.572h24.35c10.35,0,18.771,8.421,18.771,18.77v57.031
			C636.951,440.68,628.53,449.101,618.18,449.101z M595.83,447.101h22.35c9.248,0,16.771-7.523,16.771-16.771v-57.031
			c0-9.247-7.523-16.77-16.771-16.77h-22.35V447.101z"/>
		<path style="fill:#1E0049;" d="M624.18,449.101h-30.35V374.53h30.35c10.35,0,18.771,8.421,18.771,18.772v37.029
			C642.951,440.68,634.53,449.101,624.18,449.101z M595.83,447.101h28.35c9.248,0,16.771-7.523,16.771-16.771v-37.029
			c0-9.248-7.523-16.772-16.771-16.772h-28.35V447.101z"/>
		<path style="fill:#1E0049;" d="M586.548,300.701h-29.351v-2h29.351c9.248,0,16.771-7.523,16.771-16.77v-17.028
			c0-9.248-7.523-16.771-16.771-16.771h-29.351v-2h29.351c10.351,0,18.771,8.421,18.771,18.771v17.028
			C605.319,292.28,596.898,300.701,586.548,300.701z"/>
		<path style="fill:#1E0049;" d="M416.05,300.701h-29.351v-2h29.351c9.247,0,16.77-7.523,16.77-16.77v-17.028
			c0-9.248-7.523-16.771-16.77-16.771h-29.351v-2h29.351c10.35,0,18.77,8.421,18.77,18.771v17.028
			C434.82,292.28,426.399,300.701,416.05,300.701z"/>
		<g>
			<path style="fill:#1E0049;" d="M501.869,449.101h-19.94c-31.882,0-57.819-25.938-57.819-57.818v-91.154h2v91.154
				c0,30.778,25.04,55.818,55.819,55.818h19.94V449.101z"/>
			<path style="fill:#1E0049;" d="M493.291,449.101h-19.939c-31.882,0-57.819-25.938-57.819-57.818v-91.154h2v91.154
				c0,30.778,25.04,55.818,55.819,55.818h19.939V449.101z"/>
			<path style="fill:#1E0049;" d="M505.671,449.101h-19.939c-31.882,0-57.819-25.938-57.819-57.818v-91.154h2v91.154
				c0,30.778,25.04,55.818,55.819,55.818h19.939V449.101z"/>
			<path style="fill:#1E0049;" d="M477.228,449.101h-19.939c-31.882,0-57.819-25.938-57.819-57.818v-91.154h2v91.154
				c0,30.778,25.04,55.818,55.819,55.818h19.939V449.101z"/>
		</g>
		<g>
			<g>
				
					<rect x="346.411" y="151.97" transform="matrix(-1.836970e-16 1 -1 -1.836970e-16 612.1205 -166.8172)" style="fill:#193BA5;" width="86.116" height="141.364"/>
				
					<rect x="343.625" y="151.97" transform="matrix(-1.836970e-16 1 -1 -1.836970e-16 609.3349 -164.0316)" style="fill:#1E0049;" width="86.116" height="141.364"/>
				<rect x="324.149" y="187.741" style="fill:#70DBC8;" width="125.068" height="69.82"/>
				<polygon style="fill:#9EF3D2;" points="324.149,257.562 324.149,187.741 449.217,187.741 				"/>
				<rect x="371.595" y="265.71" style="fill:#193BA5;" width="37.601" height="21.411"/>
				<rect x="360.616" y="287.121" style="fill:#347FF4;" width="59.558" height="3.308"/>
			</g>
			<g>
				
					<rect x="493.471" y="176.886" transform="matrix(-1.836970e-16 1 -1 -1.836970e-16 767.2008 -295.0135)" style="fill:#193BA5;" width="75.273" height="118.416"/>
				
					<rect x="491.036" y="176.886" transform="matrix(-1.836970e-16 1 -1 -1.836970e-16 764.7659 -292.5786)" style="fill:#1E0049;" width="75.273" height="118.416"/>
				<rect x="476.586" y="205.579" style="fill:#70DBC8;" width="104.172" height="61.029"/>
				<polygon style="fill:#9EF3D2;" points="476.586,266.608 476.586,205.579 580.758,205.579 				"/>
				<rect x="515.484" y="273.73" style="fill:#193BA5;" width="32.866" height="13.807"/>
				<rect x="505.887" y="287.537" style="fill:#347FF4;" width="52.059" height="2.891"/>
			</g>
			<g>
				
					<rect x="209.843" y="176.886" transform="matrix(-1.836970e-16 1 -1 -1.836970e-16 483.5733 -11.386)" style="fill:#193BA5;" width="75.273" height="118.416"/>
				
					<rect x="207.408" y="176.886" transform="matrix(-1.836970e-16 1 -1 -1.836970e-16 481.1385 -8.9512)" style="fill:#1E0049;" width="75.273" height="118.416"/>
				<rect x="192.959" y="205.579" style="fill:#70DBC8;" width="104.172" height="61.029"/>
				<polygon style="fill:#9EF3D2;" points="192.959,266.608 192.959,205.579 297.131,205.579 				"/>
				<rect x="231.856" y="273.73" style="fill:#193BA5;" width="32.866" height="13.807"/>
				<rect x="222.26" y="287.537" style="fill:#347FF4;" width="52.059" height="2.891"/>
			</g>
		</g>
		<g>
			<rect x="480.254" y="323.671" style="fill:#3467DB;" width="82.939" height="125.43"/>
			<rect x="444.411" y="323.671" style="fill:#2343BC;" width="57.247" height="125.43"/>
			<g>
				<path style="fill:#347FF4;" d="M563.803,323.671H495.56c-2.039,0-3.692-1.653-3.692-3.692l0,0c0-2.039,1.653-3.692,3.692-3.692
					h68.243c2.039,0,3.692,1.653,3.692,3.692l0,0C567.495,322.018,565.842,323.671,563.803,323.671z"/>
				<path style="fill:#3467DB;" d="M501.237,323.671h-57.283c-2.039,0-3.692-1.653-3.692-3.692l0,0c0-2.039,1.653-3.692,3.692-3.692
					h57.283c2.039,0,3.692,1.653,3.692,3.692l0,0C504.929,322.018,503.276,323.671,501.237,323.671z"/>
			</g>
			<g>
				<g>
					<rect x="444.411" y="323.671" style="fill:#1E308B;" width="57.247" height="1.02"/>
					<polygon style="fill:#1E308B;" points="481.46,328.112 464.61,328.112 462.09,324.691 483.98,324.691 					"/>
				</g>
				<g>
					<rect x="444.411" y="349.13" style="fill:#1E308B;" width="57.247" height="1.02"/>
					<polygon style="fill:#1E308B;" points="481.46,353.57 464.61,353.57 462.09,350.149 483.98,350.149 					"/>
				</g>
				<g>
					<rect x="444.411" y="374.588" style="fill:#1E308B;" width="57.247" height="1.02"/>
					<polygon style="fill:#1E308B;" points="481.46,379.029 464.61,379.029 462.09,375.608 483.98,375.608 					"/>
				</g>
				<g>
					<rect x="444.411" y="400.046" style="fill:#1E308B;" width="57.247" height="1.02"/>
					<polygon style="fill:#1E308B;" points="481.46,404.487 464.61,404.487 462.09,401.066 483.98,401.066 					"/>
				</g>
				<g>
					<rect x="444.411" y="425.505" style="fill:#1E308B;" width="57.247" height="1.02"/>
					<polygon style="fill:#1E308B;" points="481.46,429.945 464.61,429.945 462.09,426.524 483.98,426.524 					"/>
				</g>
			</g>
		</g>
		<g>
			<path style="fill:#9071F4;" d="M597.076,300.947H310.415c-2.905,0-5.259-2.355-5.259-5.259l0,0c0-2.905,2.355-5.259,5.259-5.259
				h286.661c2.905,0,5.259,2.355,5.259,5.259l0,0C602.336,298.592,599.981,300.947,597.076,300.947z"/>
			<path style="fill:#7945DC;" d="M475.195,300.947H168.533c-2.905,0-5.259-2.355-5.259-5.259l0,0c0-2.905,2.355-5.259,5.259-5.259
				h306.662c2.905,0,5.259,2.355,5.259,5.259l0,0C480.454,298.592,478.1,300.947,475.195,300.947z"/>
			<path style="fill:#A28FFF;" d="M471.135,449.101c-0.099,0-0.198-0.005-0.298-0.015c-1.649-0.162-2.855-1.631-2.691-3.279
				l14.001-142.154c0.151-1.536,1.442-2.706,2.985-2.706H593.83c1.657,0,3,1.343,3,3v142.154c0,1.657-1.343,3-3,3
				c-1.657,0-3-1.343-3-3V306.947H487.851l-13.734,139.448C473.964,447.944,472.659,449.101,471.135,449.101z"/>
			<path style="fill:#9071F4;" d="M160.661,449.101c-0.099,0-0.198-0.005-0.298-0.015c-1.649-0.162-2.855-1.631-2.691-3.279
				l14.001-142.154c0.151-1.536,1.442-2.706,2.985-2.706h108.698c1.657,0,3,1.343,3,3v142.154c0,1.657-1.343,3-3,3s-3-1.343-3-3
				V306.947H177.377l-13.734,139.448C163.49,447.944,162.185,449.101,160.661,449.101z"/>
		</g>
		<g>
			<rect x="550.385" y="347.875" style="fill:#2343BC;" width="66.935" height="101.226"/>
			
				<rect x="547.24" y="379.021" transform="matrix(-1.836970e-16 1 -1 -1.836970e-16 991.3412 -194.3652)" style="fill:#1E308B;" width="91.226" height="38.934"/>
			
				<rect x="549.24" y="381.021" transform="matrix(-1.836970e-16 1 -1 -1.836970e-16 991.3411 -194.3651)" style="fill:#2343BC;" width="87.226" height="34.935"/>
			<rect x="521.459" y="347.875" style="fill:#193BA5;" width="46.2" height="101.226"/>
			
				<rect x="498.946" y="380.388" transform="matrix(-1.836970e-16 1 -1 -1.836970e-16 943.0472 -146.0712)" style="fill:#3467DB;" width="91.226" height="36.2"/>
			
				<rect x="543.686" y="347.986" transform="matrix(-1.836970e-16 1 -1 -1.836970e-16 907.104 -182.0145)" style="fill:#70DBC8;" width="1.746" height="29.118"/>
			
				<rect x="543.686" y="354.556" transform="matrix(-1.836970e-16 1 -1 -1.836970e-16 913.674 -175.4444)" style="fill:#70DBC8;" width="1.746" height="29.118"/>
			<path style="fill:#1E308B;" d="M549.01,384.486c0,2.458-1.993,4.451-4.451,4.451c-2.458,0-4.451-1.993-4.451-4.451
				c0-2.458,1.993-4.451,4.451-4.451C547.017,380.035,549.01,382.028,549.01,384.486z"/>
			<circle style="fill:#70DBC8;" cx="544.559" cy="384.486" r="2.249"/>
		</g>
		<g>
			<g>
				<path style="fill:#9EF3D2;" d="M599.943,400.344c5.517,6.408,5.034,15.869,5.034,15.869s-9.428-0.927-14.945-7.335
					c-5.517-6.408-5.034-15.869-5.034-15.869S594.425,393.936,599.943,400.344z"/>
				<path style="fill:#70DBC8;" d="M622.78,410.685c-5.292,9.593-17.002,13.276-17.002,13.276s-3.129-11.87,2.164-21.462
					c5.292-9.593,17.002-13.276,17.002-13.276S628.072,401.093,622.78,410.685z"/>
			</g>
			<g>
				<polygon style="fill:#9071F4;" points="618.515,449.101 596.252,449.101 593.958,420.181 620.809,420.181 				"/>
				<path style="fill:#A28FFF;" d="M621.957,420.181H592.81c-0.696,0-1.261-0.564-1.261-1.261l0,0c0-0.696,0.565-1.261,1.261-1.261
					h29.147c0.696,0,1.261,0.564,1.261,1.261l0,0C623.218,419.617,622.653,420.181,621.957,420.181z"/>
			</g>
		</g>
		<g>
			<rect x="187.74" y="348.132" style="fill:#2343BC;" width="53.539" height="100.969"/>
			
				<rect x="176.823" y="384.645" transform="matrix(-1.836970e-16 1 -1 -1.836970e-16 620.3252 176.9076)" style="fill:#2343BC;" width="89.771" height="27.943"/>
			<rect x="164.603" y="348.132" style="fill:#193BA5;" width="36.954" height="100.969"/>
			
				<rect x="136.595" y="384.139" transform="matrix(-1.836970e-16 1 -1 -1.836970e-16 581.6962 215.5366)" style="fill:#3467DB;" width="92.97" height="28.956"/>
			<path style="fill:#70DBC8;" d="M171.434,352.131L171.434,352.131h23.291l0,0c0,2.429-1.969,4.397-4.397,4.397h-14.497
				C173.403,356.528,171.434,354.56,171.434,352.131z"/>
		</g>
		<g>
			<g>
				<defs>
					<polygon id="SVGID_1_" points="142.805,444.217 99.687,444.217 95.245,388.207 147.248,388.207 					"/>
				</defs>
				<clipPath id="SVGID_00000034079932529650741290000012385840082731069608_">
					<use xlink:href="#SVGID_1_"  style="overflow:visible;"/>
				</clipPath>
				<path style="clip-path:url(#SVGID_00000034079932529650741290000012385840082731069608_);fill:#193BA5;" d="M144.588,435.454
					l3.962-3.962v-2.004l-3.962-3.962l3.962-3.962v-2.004l-3.962-3.962l3.962-3.962v-2.004l-3.962-3.962l3.962-3.962v-2.004
					l-3.962-3.962l3.962-3.962v-2.004l-3.962-3.962l3.962-3.962v-2.004l-3.962-3.962l2.015-2.015h-2.004l-1.013,1.013l-1.013-1.013
					h-2.004l2.015,2.015l-3.962,3.962l-3.962-3.962l2.015-2.015h-2.004l-1.013,1.013l-1.013-1.013h-2.004l2.016,2.015l-3.962,3.962
					l-3.962-3.962l2.016-2.015h-2.004l-1.013,1.013l-1.013-1.013h-2.004l2.015,2.015l-3.962,3.962l-3.962-3.962l2.015-2.015h-2.004
					l-1.013,1.013l-1.013-1.013h-2.004l2.015,2.015l-3.962,3.962l-3.962-3.962l2.015-2.015h-2.004l-1.013,1.013l-1.013-1.013h-2.004
					l2.015,2.015l-3.962,3.962l-4.964-4.965v2.005l3.962,3.962l-3.962,3.962v2.004l3.962,3.962l-3.962,3.962v2.004l3.962,3.962
					l-3.962,3.962v2.004l3.962,3.962l-3.962,3.962v2.004l3.962,3.962l-3.962,3.962v2.004l3.962,3.962l-3.962,3.962v2.004
					l3.962,3.962l-3.962,3.962v2.004l0.053,0.053h1.172l0.416-0.416l-0.639-0.639l3.962-3.962l3.962,3.962l-0.639,0.639l0.416,0.416
					h1.172l0.053-0.053l0.053,0.053h1.172l0.416-0.416l-0.639-0.639l3.962-3.962l3.962,3.962l-0.639,0.639l0.416,0.416h1.172
					l0.053-0.053l0.053,0.053h1.172l0.416-0.416l-0.639-0.639l3.962-3.962l3.962,3.962l-0.639,0.639l0.416,0.416h1.172l0.053-0.053
					l0.053,0.053h1.172l0.416-0.416l-0.639-0.639l3.962-3.962l3.962,3.962l-0.639,0.639l0.416,0.416h1.172l0.053-0.053l0.053,0.053
					h1.172l0.416-0.416l-0.639-0.639l3.962-3.962l3.962,3.962l-0.639,0.639l0.416,0.416h1.172l0.053-0.053l0.053,0.053h1.172
					l0.416-0.416l-0.639-0.639l3.962-3.962v-2.004L144.588,435.454z M147.548,430.49l-3.962,3.962l-3.962-3.962l3.962-3.962
					L147.548,430.49z M129.695,400.704l3.962-3.962l3.962,3.962l-3.962,3.962L129.695,400.704z M137.619,410.632l-3.962,3.962
					l-3.962-3.962l3.962-3.962L137.619,410.632z M132.655,405.668l-3.962,3.962l-3.962-3.962l3.962-3.962L132.655,405.668z
					 M127.691,410.632l-3.962,3.962l-3.962-3.962l3.962-3.962L127.691,410.632z M123.728,404.666l-3.962-3.962l3.962-3.962
					l3.962,3.962L123.728,404.666z M122.726,405.668l-3.962,3.962l-3.962-3.962l3.962-3.962L122.726,405.668z M117.762,410.632
					l-3.962,3.962l-3.962-3.962l3.962-3.962L117.762,410.632z M113.8,404.666l-3.962-3.962l3.962-3.962l3.962,3.962L113.8,404.666z
					 M112.797,405.668l-3.962,3.962l-3.962-3.962l3.962-3.962L112.797,405.668z M112.797,415.597l-3.962,3.962l-3.962-3.962
					l3.962-3.962L112.797,415.597z M113.8,416.599l3.962,3.962l-3.962,3.962l-3.962-3.962L113.8,416.599z M114.802,415.597
					l3.962-3.962l3.962,3.962l-3.962,3.962L114.802,415.597z M123.728,416.599l3.962,3.962l-3.962,3.962l-3.962-3.962
					L123.728,416.599z M124.73,415.597l3.962-3.962l3.962,3.962l-3.962,3.962L124.73,415.597z M133.657,416.599l3.962,3.962
					l-3.962,3.962l-3.962-3.962L133.657,416.599z M134.659,415.597l3.962-3.962l3.962,3.962l-3.962,3.962L134.659,415.597z
					 M138.621,409.63l-3.962-3.962l3.962-3.962l3.962,3.962L138.621,409.63z M134.659,395.739l3.962-3.962l3.962,3.962l-3.962,3.962
					L134.659,395.739z M133.657,394.737l-3.962-3.962l3.962-3.962l3.962,3.962L133.657,394.737z M132.655,395.739l-3.962,3.962
					l-3.962-3.962l3.962-3.962L132.655,395.739z M123.728,394.737l-3.962-3.962l3.962-3.962l3.962,3.962L123.728,394.737z
					 M122.726,395.739l-3.962,3.962l-3.962-3.962l3.962-3.962L122.726,395.739z M113.8,394.737l-3.962-3.962l3.962-3.962
					l3.962,3.962L113.8,394.737z M112.797,395.739l-3.962,3.962l-3.962-3.962l3.962-3.962L112.797,395.739z M103.871,394.737
					l-3.962-3.962l3.962-3.962l3.962,3.962L103.871,394.737z M107.833,400.704l-3.962,3.962l-3.962-3.962l3.962-3.962
					L107.833,400.704z M107.833,410.632l-3.962,3.962l-3.962-3.962l3.962-3.962L107.833,410.632z M107.833,420.561l-3.962,3.962
					l-3.962-3.962l3.962-3.962L107.833,420.561z M107.833,430.49l-3.962,3.962l-3.962-3.962l3.962-3.962L107.833,430.49z
					 M104.873,425.525l3.962-3.962l3.962,3.962l-3.962,3.962L104.873,425.525z M113.8,426.527l3.962,3.962l-3.962,3.962
					l-3.962-3.962L113.8,426.527z M114.802,425.525l3.962-3.962l3.962,3.962l-3.962,3.962L114.802,425.525z M123.728,426.527
					l3.962,3.962l-3.962,3.962l-3.962-3.962L123.728,426.527z M124.73,425.525l3.962-3.962l3.962,3.962l-3.962,3.962L124.73,425.525
					z M133.657,426.527l3.962,3.962l-3.962,3.962l-3.962-3.962L133.657,426.527z M134.659,425.525l3.962-3.962l3.962,3.962
					l-3.962,3.962L134.659,425.525z M147.548,420.561l-3.962,3.962l-3.962-3.962l3.962-3.962L147.548,420.561z M147.548,410.632
					l-3.962,3.962l-3.962-3.962l3.962-3.962L147.548,410.632z M147.548,400.704l-3.962,3.962l-3.962-3.962l3.962-3.962
					L147.548,400.704z M147.548,390.775l-3.962,3.962l-3.962-3.962l3.962-3.962L147.548,390.775z M143.586,376.884l3.962,3.962
					l-3.962,3.962l-3.962-3.962L143.586,376.884z M138.621,381.848l3.962,3.962l-3.962,3.962l-3.962-3.962L138.621,381.848z
					 M133.657,376.884l3.962,3.962l-3.962,3.962l-3.962-3.962L133.657,376.884z M132.655,385.81l-3.962,3.962l-3.962-3.962
					l3.962-3.962L132.655,385.81z M123.728,376.884l3.962,3.962l-3.962,3.962l-3.962-3.962L123.728,376.884z M122.726,385.81
					l-3.962,3.962l-3.962-3.962l3.962-3.962L122.726,385.81z M113.8,376.884l3.962,3.962l-3.962,3.962l-3.962-3.962L113.8,376.884z
					 M112.797,385.81l-3.962,3.962l-3.962-3.962l3.962-3.962L112.797,385.81z M103.871,376.884l3.962,3.962l-3.962,3.962
					l-3.962-3.962L103.871,376.884z M94.944,385.81l3.962-3.962l3.962,3.962l-3.962,3.962L94.944,385.81z M94.944,395.739
					l3.962-3.962l3.962,3.962l-3.962,3.962L94.944,395.739z M94.944,405.668l3.962-3.962l3.962,3.962l-3.962,3.962L94.944,405.668z
					 M94.944,415.597l3.962-3.962l3.962,3.962l-3.962,3.962L94.944,415.597z M94.944,425.525l3.962-3.962l3.962,3.962l-3.962,3.962
					L94.944,425.525z M94.944,435.454l3.962-3.962l3.962,3.962l-3.962,3.962L94.944,435.454z M103.871,444.381l-3.962-3.962
					l3.962-3.962l3.962,3.962L103.871,444.381z M104.873,435.454l3.962-3.962l3.962,3.962l-3.962,3.962L104.873,435.454z
					 M113.8,444.381l-3.962-3.962l3.962-3.962l3.962,3.962L113.8,444.381z M114.802,435.454l3.962-3.962l3.962,3.962l-3.962,3.962
					L114.802,435.454z M123.728,444.381l-3.962-3.962l3.962-3.962l3.962,3.962L123.728,444.381z M124.73,435.454l3.962-3.962
					l3.962,3.962l-3.962,3.962L124.73,435.454z M133.657,444.381l-3.962-3.962l3.962-3.962l3.962,3.962L133.657,444.381z
					 M134.659,435.454l3.962-3.962l3.962,3.962l-3.962,3.962L134.659,435.454z M143.586,444.381l-3.962-3.962l3.962-3.962
					l3.962,3.962L143.586,444.381z"/>
			</g>
			<g>
				<path style="fill:#3467DB;" d="M149.471,388.207H93.022c-1.349,0-2.442-1.093-2.442-2.442l0,0c0-1.349,1.093-2.442,2.442-2.442
					h56.449c1.349,0,2.442,1.093,2.442,2.442l0,0C151.913,387.114,150.819,388.207,149.471,388.207z"/>
				<path style="fill:#3467DB;" d="M143.484,449.101H99.008c-1.349,0-2.442-1.093-2.442-2.442l0,0c0-1.349,1.093-2.442,2.442-2.442
					h44.476c1.349,0,2.442,1.093,2.442,2.442l0,0C145.926,448.008,144.833,449.101,143.484,449.101z"/>
			</g>
		</g>
	</g>
	<g>
		<g>
			<g>
				<g>
					<path style="fill:#5BCFC3;" d="M388.539,434.512h-6.963c-5.412,0-10.363-3.046-12.802-7.877l0,0h-12.272l3.978,20.268h40.45
						C400.93,440.06,395.382,434.512,388.539,434.512z"/>
					<rect x="360.48" y="446.903" style="fill:#9EF3D2;" width="40.45" height="2.198"/>
				</g>
				<g>
					<path style="fill:#9071F4;" d="M334.819,373.461h-36.647c-11.418,0-20.674-9.256-20.674-20.674v0
						c0-11.418,9.256-20.674,20.674-20.674h36.647c11.418,0,20.674,9.256,20.674,20.674v0
						C355.494,364.205,346.237,373.461,334.819,373.461z"/>
					<path style="fill:#7945DC;" d="M354.475,346.005c-3.104-8.52-12.527-12.911-21.047-9.807l0,0
						c-8.52,3.104-12.911,12.527-9.808,21.047l30.651,82.722l25.983-9.465L354.475,346.005z"/>
				</g>
			</g>
			<g>
				
					<rect x="295.001" y="220.041" transform="matrix(0.9716 -0.2368 0.2368 0.9716 -47.0619 78.9268)" style="fill:#FFFFFF;" width="19.982" height="30.624"/>
				<g>
					<path style="fill:#FFFFFF;" d="M311.87,235.647l-3.996,0.974c-10.329,2.518-20.744-3.814-23.262-14.144l-3.642-14.939
						c-2.518-10.329,3.814-20.744,14.144-23.262l3.996-0.974c10.329-2.518,20.744,3.814,23.263,14.144l3.642,14.939
						C328.532,222.714,322.199,233.129,311.87,235.647z"/>
					<g>
						<path style="fill:#7945DC;" d="M321.934,171.498c-3.442-2.653-9.289,3.038-16.319,6.067
							c-7.03,3.029-22.601-0.637-27.337,7.691c-1.589,2.794,0.306,6.67,0.306,6.67s-7.171,3.527-7.177,6.531
							c-0.01,4.552,2.37,11.782,4.739,15.288c3.934,5.823,19.519,15.001,27.076,15.001c12.091,0,1.613-26.46,4.54-32.472
							c2.096-4.307,5.776-4.979,9.567-6.945c2.932-1.52,6.009-4.276,6.881-8.456C325.257,175.842,323.993,173.085,321.934,171.498z"
							/>
						<path style="fill:#7945DC;" d="M274.574,210.886l8.641,19.831c1.508,3.041,4.709,4.865,8.094,4.613l12.653-1.622
							c4.719-0.352,8.028-4.807,7.003-9.426l-3.332-14.913L274.574,210.886z"/>
					</g>
					<path style="fill:#FFFFFF;" d="M310.553,211.469c1.228,3.711-0.322,7.563-3.464,8.602c-3.141,1.04-6.684-1.126-7.912-4.837
						c-1.228-3.711,0.322-7.563,3.464-8.602C305.782,205.592,309.325,207.758,310.553,211.469z"/>
				</g>
			</g>
			<g>
				<path style="fill:#FFFFFF;" d="M413.9,275.588c-6.55,0-11.86,5.31-11.86,11.86h23.72
					C425.76,280.898,420.45,275.588,413.9,275.588z"/>
				<rect x="402.04" y="287.448" style="fill:#70DBC8;" width="25.873" height="2.98"/>
			</g>
			<g>
				<g>
					<path style="fill:#70DBC8;" d="M437.73,434.512h-6.963c-5.412,0-10.362-3.046-12.802-7.877l0,0h-12.272l3.978,20.268h40.451
						C450.121,440.06,444.573,434.512,437.73,434.512z"/>
					<rect x="409.671" y="446.903" style="fill:#9EF3D2;" width="40.451" height="2.198"/>
				</g>
				<g>
					<path style="fill:#9071F4;" d="M384.01,373.461h-56.648c-11.418,0-20.674-9.256-20.674-20.674v0
						c0-11.418,9.256-20.674,20.674-20.674h56.648c11.418,0,20.674,9.256,20.674,20.674v0
						C404.684,364.205,395.428,373.461,384.01,373.461z"/>
					<path style="fill:#9071F4;" d="M403.666,346.005c-3.104-8.52-12.527-12.911-21.047-9.807l0,0
						c-8.52,3.104-12.911,12.527-9.808,21.047l30.651,82.722l25.983-9.465L403.666,346.005z"/>
				</g>
			</g>
			<g>
				<path style="fill:#1E0049;" d="M333.293,353.577l-5.132,0.918c-24.553,4.392-48.125-11.612-53.101-36.053l-14.212-69.804
					l51.218-6.378c10.032-1.249,19.358,5.366,21.494,15.247l21.392,64.18c1.485,4.27,0.685,9.003-2.12,12.548l-11.5,14.532
					C339.329,351.298,336.47,353.009,333.293,353.577z"/>
				<g>
					<path style="fill:#1E0049;" d="M408.211,282.917L408.211,282.917c0.482,6.363-4.566,11.933-11.275,12.441l-36.56,2.861
						c-6.708,0.508-12.537-4.239-13.019-10.602v0c-0.482-6.363,4.566-11.933,11.275-12.441l36.56-2.861
						C401.901,271.807,407.729,276.554,408.211,282.917z"/>
					<path style="fill:#1E0049;" d="M366.555,295.217L366.555,295.217c-4.636,4.385-12.142,3.977-16.765-0.911l-32.128-33.853
						c-4.623-4.888-4.612-12.405,0.025-16.79l0,0c4.636-4.385,12.142-3.977,16.765,0.911l32.128,33.853
						C371.202,283.315,371.191,290.832,366.555,295.217z"/>
				</g>
			</g>
			<g>
				<path style="fill:#1E0049;" d="M317.498,228.95c-0.479,0.003-0.952-0.223-1.245-0.647l-10.375-12.281
					c-0.471-0.682-0.301-1.615,0.381-2.087c0.682-0.471,1.616-0.3,2.087,0.381l9.543,11.078l11.194-7.314
					c0.694-0.454,1.623-0.26,2.076,0.435c0.454,0.693,0.259,1.623-0.435,2.076l-12.418,8.114
					C318.058,228.87,317.777,228.949,317.498,228.95z"/>
				<g>
					<path style="fill:#193BA5;" d="M276.406,186.798l-0.534,4.204c-0.142,1.12,0.736,2.111,1.864,2.09
						c5.096-0.096,18.275,1.03,19.655,14.135l7.862-3.58c-0.26-17.716-21.165-18.594-27.057-18.47
						C277.279,185.195,276.521,185.888,276.406,186.798z"/>
					<path style="fill:#1E0049;" d="M277.375,191.415c-0.586,0.011-1.105-0.232-1.478-0.615l-0.026,0.202
						c-0.142,1.12,0.736,2.111,1.864,2.09c5.096-0.096,18.275,1.03,19.655,14.135l1.496-0.681
						C297.158,192.531,282.916,191.31,277.375,191.415z"/>
					<path style="fill:#347FF4;" d="M312.967,210.199c1.644,4.967-0.924,10.284-5.737,11.877
						c-4.813,1.593-10.047-1.142-11.691-6.108c-1.644-4.967,0.924-10.284,5.737-11.877
						C306.089,202.498,311.323,205.232,312.967,210.199z"/>
					<path style="fill:#1E0049;" d="M304.424,219.531c-2.719,0-5.145-1.811-6.037-4.506c-1.121-3.388,0.598-7.015,3.832-8.086
						c0.605-0.2,1.232-0.302,1.864-0.302c2.718,0,5.143,1.811,6.036,4.506c0.549,1.657,0.441,3.417-0.302,4.955
						c-0.727,1.506-1.98,2.617-3.53,3.131C305.682,219.429,305.055,219.531,304.424,219.531z"/>
				</g>
			</g>
		</g>
		<g>
			<g>
				<path style="fill:#2343BC;" d="M317.27,351.856l-1.001-6.958l0,0l-19.223-133.597h-46.817c-7.29,0-12.887,6.46-11.849,13.676
					l18.256,126.878c1.784,12.401,12.409,21.606,24.937,21.606h60.634C329.679,373.461,319.054,364.256,317.27,351.856z"/>
				<path style="fill:#3467DB;" d="M333.464,319.287c-21.245-20.283-24.226-72.577-24.448-96.151
					c-0.062-6.558-5.412-11.835-11.97-11.835l0,0l19.223,133.597l1.001,6.958c1.784,12.4,12.409,21.605,24.937,21.605h12.059
					C354.266,373.461,361.28,345.842,333.464,319.287z"/>
				<path style="fill:#347FF4;" d="M342.207,373.461h48.127c5.001,0,9.055-4.054,9.055-9.055v-4.626
					c0-5.769-10.41-19.28-28.591-20.579c-18.181-1.3-38.992,7.126-42.288,15.707C325.213,363.489,342.207,373.461,342.207,373.461z"
					/>
			</g>
			<g>
				<rect x="279.665" y="373.461" style="fill:#193BA5;" width="102.981" height="6.718"/>
				<g>
					<g>
						<g>
							<circle style="fill:#193BA5;" cx="294.462" cy="440.447" r="8.654"/>
							<circle style="fill:#3467DB;" cx="294.462" cy="440.447" r="4.589"/>
						</g>
						<g>
							<circle style="fill:#193BA5;" cx="367.85" cy="440.447" r="8.654"/>
							<circle style="fill:#3467DB;" cx="367.85" cy="440.447" r="4.589"/>
						</g>
					</g>
					<g>
						<path style="fill:#3467DB;" d="M336.35,444.867h-10.389c-0.841,0-1.522-0.681-1.522-1.522v-4.698
							c0-0.841,0.681-1.522,1.522-1.522h10.389c0.841,0,1.522,0.681,1.522,1.522v4.698
							C337.872,444.185,337.191,444.867,336.35,444.867z"/>
						<path style="fill:#193BA5;" d="M333.788,449.101h-5.265c-1.394,0-2.523-1.13-2.523-2.523v-12.261
							c0-1.393,1.13-2.523,2.523-2.523h5.265c1.393,0,2.523,1.13,2.523,2.523v12.261
							C336.312,447.971,335.182,449.101,333.788,449.101z"/>
					</g>
					<path style="fill:#347FF4;" d="M331.156,443.276L331.156,443.276c-1.572,0-2.846-1.274-2.846-2.846v-60.251h5.692v60.251
						C334.002,442.002,332.728,443.276,331.156,443.276z"/>
					<rect x="327.447" y="405.522" style="fill:#2343BC;" width="7.418" height="8.345"/>
					<path style="fill:#347FF4;" d="M369.635,437.608l-18.276-18.276c-0.622-0.622-1.466-0.973-2.348-0.973h-17.856H313.3
						c-0.881,0-1.725,0.35-2.348,0.973l-18.276,18.276c-1.297,1.296-1.297,3.399,0,4.695c0.649,0.648,1.498,0.973,2.348,0.973
						c0.85,0,1.699-0.324,2.348-0.973l17.304-17.303h16.48h16.48l17.304,17.303c0.648,0.648,1.498,0.973,2.348,0.973
						c0.849,0,1.699-0.324,2.348-0.973C370.932,441.008,370.932,438.905,369.635,437.608z"/>
					<rect x="323.97" y="413.867" style="fill:#193BA5;" width="14.372" height="4.493"/>
					<rect x="328.31" y="425.001" style="fill:#3467DB;" width="5.692" height="3.441"/>
				</g>
			</g>
		</g>
	</g>
</g>
</svg>
